<svg width="106" height="60" viewBox="0 0 106 60" fill="none" xmlns="http://www.w3.org/2000/svg">
<g clip-path="url(#clip0_24_488)" filter="url(#filter0_d_24_488)">
<path d="M44.3683 25.1018C44.3683 27.7949 44.2966 30.4881 44.3802 33.1812C44.6191 40.308 40.0796 44.0125 35.325 45.7766C34.5365 46.0706 33.8317 46.0706 33.0433 45.7648C29.543 44.4359 26.664 42.4013 25.0513 38.932C24.3942 37.5325 24.0478 36.0507 24.0358 34.5101C24 28.136 24.0239 21.7501 24 15.3642C24 14.9291 24.227 14.9055 24.5256 14.8467C27.0582 14.3528 29.6267 14.0941 32.207 14.0235C36.0776 13.9177 39.9362 14.0941 43.7471 14.8115C44.201 14.8938 44.3802 15.0232 44.3802 15.5406C44.3444 18.7394 44.3683 21.9147 44.3683 25.1018Z" fill="#202020"/>
<path d="M32.5654 29.1356C32.6013 30.8173 32.5057 32.4991 32.661 34.1691C32.7327 35.004 33.1389 35.6391 33.8198 36.1213C34.0826 36.3094 34.2976 36.3212 34.5724 36.133C36.006 35.204 35.7551 33.8633 35.8029 32.3815C35.8029 32.1228 35.8507 31.9581 36.1613 31.8875C36.9139 31.7464 37.6665 31.57 38.4191 31.3936C38.6461 31.3348 38.7416 31.3818 38.7416 31.6288C38.8014 34.957 38.7655 36.8622 35.7192 38.8497C34.5963 39.6259 33.6287 39.5436 32.5296 38.8262C30.6541 37.6149 29.77 35.8861 29.7342 33.7457C29.6745 30.4057 29.4953 27.0658 29.8298 23.7376C30.224 19.8449 34.1782 18.9041 36.6988 20.4094C38.0965 21.2444 38.6222 22.5733 38.7177 24.1139C38.8253 25.7957 38.873 25.7721 37.2364 26.2073C36.8422 26.3131 36.1851 26.5719 35.8865 26.3249C35.6595 26.1367 35.8029 25.5134 35.7909 25.09C35.779 24.7608 35.779 24.4315 35.7551 24.0904C35.6953 23.0673 35.1219 22.4204 34.226 22.4087C33.3181 22.3852 32.7327 22.9732 32.6371 24.0198C32.4938 25.7369 32.6013 27.4304 32.5654 29.1356Z" fill="#F2F7FF"/>
</g>
<path d="M73.9238 35V21H70.8238V27.08H65.5038V21H62.4038V35H65.5038V29.54H70.8238V35H73.9238ZM79.8875 35V24.74H76.9075V35H79.8875ZM76.5475 22.02C76.5475 23 77.3475 23.68 78.4275 23.68C79.4875 23.68 80.3275 23 80.3275 22.02C80.3275 21.02 79.4875 20.32 78.4275 20.32C77.3475 20.32 76.5475 21.02 76.5475 22.02ZM92.9725 24.74H89.7125L87.1925 31.66L84.6925 24.74H81.4325L85.7325 35H88.6925L92.9725 24.74ZM98.9764 26.94C99.9764 26.94 101.316 27.44 101.516 28.76H96.3764C96.7364 27.38 98.0164 26.94 98.9764 26.94ZM102.296 31.56C101.576 32.24 100.516 32.78 99.4564 32.78C97.5564 32.78 96.3764 31.84 96.3164 30.56H104.576C104.576 26.48 101.856 24.52 99.0164 24.52C95.7164 24.52 93.3564 26.9 93.3564 29.92C93.3564 32.84 95.4364 35.22 99.2364 35.22C100.616 35.22 102.556 34.8 104.016 33.2L102.296 31.56Z" fill="#202020"/>
<defs>
<filter id="filter0_d_24_488" x="-2" y="-10" width="80.3922" height="92" filterUnits="userSpaceOnUse" color-interpolation-filters="sRGB">
<feFlood flood-opacity="0" result="BackgroundImageFix"/>
<feColorMatrix in="SourceAlpha" type="matrix" values="0 0 0 0 0 0 0 0 0 0 0 0 0 0 0 0 0 0 127 0" result="hardAlpha"/>
<feOffset dx="4" dy="6"/>
<feGaussianBlur stdDeviation="15"/>
<feColorMatrix type="matrix" values="0 0 0 0 0 0 0 0 0 0 0 0 0 0 0 0 0 0 0.2 0"/>
<feBlend mode="normal" in2="BackgroundImageFix" result="effect1_dropShadow_24_488"/>
<feBlend mode="normal" in="SourceGraphic" in2="effect1_dropShadow_24_488" result="shape"/>
</filter>
<clipPath id="clip0_24_488">
<rect width="20.3922" height="32" fill="white" transform="translate(24 14)"/>
</clipPath>
</defs>
</svg>
