<svg width="125" height="200" viewBox="0 0 125 200" fill="none" xmlns="http://www.w3.org/2000/svg">
<g clip-path="url(#clip0_1_125)" filter="url(#filter0_d_1_125)">
<path d="M90.9238 59.387C90.9238 67.9713 90.6954 76.5557 90.9619 85.14C91.7235 107.857 77.2537 119.665 62.0984 125.288C59.5852 126.225 57.3386 126.225 54.8254 125.25C43.6684 121.014 34.4915 114.529 29.3509 103.471C27.2566 99.0099 26.1523 94.2867 26.1142 89.376C26 69.0584 26.0762 48.7034 26 28.3484C26 26.9614 26.7235 26.8864 27.6755 26.699C35.7481 25.1246 43.935 24.2999 52.1599 24.075C64.4974 23.7376 76.7967 24.2999 88.9438 26.5866C90.3907 26.849 90.9619 27.2613 90.9619 28.9107C90.8477 39.1069 90.9238 49.2282 90.9238 59.387Z" fill="#202020"/>
<path d="M53.3023 72.2447C53.4165 77.6053 53.1119 82.9658 53.6069 88.2888C53.8354 90.9504 55.13 92.9746 57.3005 94.5116C58.1382 95.1113 58.8237 95.1488 59.6995 94.549C64.2689 91.5876 63.4692 87.3142 63.6216 82.5909C63.6216 81.7662 63.7739 81.2414 64.7639 81.0165C67.1629 80.5667 69.5618 80.0044 71.9607 79.4421C72.6842 79.2547 72.9889 79.4046 72.9889 80.1918C73.1793 90.8004 73.065 96.8732 63.355 103.208C59.7756 105.682 56.6913 105.42 53.188 103.133C47.2097 99.2723 44.3919 93.7618 44.2777 86.9393C44.0873 76.2933 43.5161 65.6472 44.5823 55.0386C45.8389 42.6306 58.4429 39.6317 66.4774 44.43C70.9326 47.0915 72.6081 51.3274 72.9127 56.2381C73.2554 61.5987 73.4077 61.5237 68.191 62.9107C66.9344 63.2481 64.8401 64.0728 63.8881 63.2855C63.1646 62.6858 63.6216 60.699 63.5835 59.3495C63.5454 58.2999 63.5454 57.2503 63.4692 56.1632C63.2788 52.9019 61.4511 50.8401 58.5952 50.8026C55.7012 50.7277 53.8354 52.602 53.5308 55.9382C53.0738 61.4112 53.4165 66.8092 53.3023 72.2447Z" fill="#F2F7FF"/>
</g>
<path d="M23.7231 188V177.08H34.3631V188H40.5631V160H34.3631V172.16H23.7231V160H17.5231V188H23.7231ZM52.4906 188V167.48H46.5306V188H52.4906ZM45.8106 162.04C45.8106 164 47.4106 165.36 49.5706 165.36C51.6906 165.36 53.3706 164 53.3706 162.04C53.3706 160.04 51.6906 158.64 49.5706 158.64C47.4106 158.64 45.8106 160.04 45.8106 162.04ZM64.1806 188H70.1006L78.6606 167.48H72.1406L67.1006 181.32L62.1006 167.48H55.5806L64.1806 188ZM90.6684 171.88C92.6684 171.88 95.3484 172.88 95.7484 175.52H85.4684C86.1884 172.76 88.7484 171.88 90.6684 171.88ZM97.3084 181.12C95.8684 182.48 93.7484 183.56 91.6284 183.56C87.8284 183.56 85.4684 181.68 85.3484 179.12H101.868C101.868 170.96 96.4284 167.04 90.7484 167.04C84.1484 167.04 79.4284 171.8 79.4284 177.84C79.4284 183.68 83.5884 188.44 91.1884 188.44C93.9484 188.44 97.8284 187.6 100.748 184.4L97.3084 181.12Z" fill="#202020"/>
<defs>
<filter id="filter0_d_1_125" x="0" y="0" width="125" height="162" filterUnits="userSpaceOnUse" color-interpolation-filters="sRGB">
<feFlood flood-opacity="0" result="BackgroundImageFix"/>
<feColorMatrix in="SourceAlpha" type="matrix" values="0 0 0 0 0 0 0 0 0 0 0 0 0 0 0 0 0 0 127 0" result="hardAlpha"/>
<feOffset dx="4" dy="6"/>
<feGaussianBlur stdDeviation="15"/>
<feColorMatrix type="matrix" values="0 0 0 0 0 0 0 0 0 0 0 0 0 0 0 0 0 0 0.2 0"/>
<feBlend mode="normal" in2="BackgroundImageFix" result="effect1_dropShadow_1_125"/>
<feBlend mode="normal" in="SourceGraphic" in2="effect1_dropShadow_1_125" result="shape"/>
</filter>
<clipPath id="clip0_1_125">
<rect width="65" height="102" fill="white" transform="translate(26 24)"/>
</clipPath>
</defs>
</svg>
